# xmcd
#
# Track frame offsets: 
#        150
#        12802
#        24851
#        36582
#        48045
#        61591
#        76253
#        95297
#        108390
#        122431
#        131809
#        146595
#        159153
#        170725
#        181220
#        194239
#        206081
#        217199
#        229016
#        240946
#
# Disc length: 3387 seconds
#
# Revision: 1
# Processed by: cddbd v1.5.2PL0 Copyright (c) Steve Scherf et al.
# Submitted via: ExactAudioCopy v1.0b1
#
DISCID=090d3914
DTITLE=Various Artist - Classic Country Queens Of Country
DYEAR=2003
DGENRE=Country
TTITLE0=Lynn Anderson - Rose Garden
TTITLE1=Tammy Wynette - Stand By Your Man
TTITLE2=Patsy Cline - Sweet Dreams (Of You)
TTITLE3=Crystal Gayle - Don't It Make My Brown Eyes Blue
TTITLE4=Loretta Lynn - Coal Miner's Daughter
TTITLE5=Jeannie C. Riley - Harper Valley P.T.A.
TTITLE6=Bobbie Gentry - Ode To Billie Joe
TTITLE7=Tanya Tucker - Delta Dawn
TTITLE8=Barbara Mandrell - (If Loving You Is Wrong) I Don't Want To Be
TTITLE8=Right
TTITLE9=Dottie West - Country Sunshine
TTITLE10=Jeanne Pruett - Satin Sheets
TTITLE11=Donna Fargo - Funny Face
TTITLE12=Sammi Smith - Help Me Make It Through The Night
TTITLE13=Connie Smith - Once A Day
TTITLE14=Kitty Wells - Makin' Believe
TTITLE15=Emmylou Harris - If I Could Only Win Your Love
TTITLE16=Jean Shepard - A Satisfied Mind
TTITLE17=Skeeter Davis - The End Of The World
TTITLE18=Brenda Lee - Break It To Me Gently
TTITLE19=Dolly Parton - I Will Always Love You
EXTD=
EXTT0=
EXTT1=
EXTT2=
EXTT3=
EXTT4=
EXTT5=
EXTT6=
EXTT7=
EXTT8=
EXTT9=
EXTT10=
EXTT11=
EXTT12=
EXTT13=
EXTT14=
EXTT15=
EXTT16=
EXTT17=
EXTT18=
EXTT19=
PLAYORDER=
